<?xml version="1.0" standalone="no"?>
<!DOCTYPE svg PUBLIC "-//W3C//DTD SVG 20010904//EN"
 "http://www.w3.org/TR/2001/REC-SVG-20010904/DTD/svg10.dtd">
<svg version="1.0" xmlns="http://www.w3.org/2000/svg"
 width="16.000000pt" height="16.000000pt" viewBox="0 0 16.000000 16.000000"
 preserveAspectRatio="xMidYMid meet">
<metadata>
Created by potrace 1.11, written by Peter Selinger 2001-2013
</metadata>
<g transform="translate(0.000000,16.000000) scale(0.003855,-0.003855)"
fill="#000000" stroke="none">
<path d="M1810 4080 c-30 -4 -76 -10 -101 -13 -25 -4 -68 -11 -95 -18 -27 -6
-61 -13 -77 -16 -26 -4 -193 -57 -267 -85 -135 -50 -416 -215 -522 -305 -174
-150 -303 -292 -411 -453 -57 -86 -145 -249 -177 -330 -12 -30 -26 -64 -31
-75 -9 -22 -49 -140 -55 -165 -29 -117 -48 -214 -59 -300 -22 -183 -8 -505 30
-667 3 -13 7 -31 9 -41 110 -488 429 -940 866 -1226 82 -54 272 -154 335 -177
11 -4 36 -14 55 -22 94 -41 333 -98 490 -116 85 -10 386 -7 470 4 213 27 308
45 425 79 28 8 68 20 90 26 22 7 44 16 49 21 6 5 17 9 26 9 30 0 294 137 397
206 161 109 352 283 441 403 15 20 29 38 32 41 15 13 83 114 127 185 120 198
225 480 258 695 4 25 9 53 10 62 17 91 24 381 11 469 -3 24 -8 64 -11 89 -35
288 -165 617 -345 871 -194 275 -449 494 -745 640 -72 35 -144 69 -160 76
-109 42 -288 92 -387 107 -60 9 -100 15 -143 21 -65 9 -475 13 -535 5z"/>
</g>
</svg>
